<?xml version="1.0" encoding="utf-8"?>
<!-- Generator: Adobe Illustrator 16.0.0, SVG Export Plug-In . SVG Version: 6.00 Build 0)  -->
<!DOCTYPE svg PUBLIC "-//W3C//DTD SVG 1.1//EN" "http://www.w3.org/Graphics/SVG/1.1/DTD/svg11.dtd">
<svg version="1.1" id="Layer_1" xmlns="http://www.w3.org/2000/svg" xmlns:xlink="http://www.w3.org/1999/xlink" x="0px" y="0px"
	 width="287.787px" height="293px" viewBox="0 0 287.787 293" enable-background="new 0 0 287.787 293" xml:space="preserve">
<g>
	<path fill="#39B54A" d="M52,143.24V134v-0.414V2.934C52,0.981,52,0,52,0H17.238H0v20h15v253H0v20h52V144V143.24z"/>
	<path fill="#FFFFFF" d="M287.384,288.619L220.627,151H93.208c-3.841,6.163-10.597,10.374-18.313,10.374
		c-10.612,0-19.438-7.374-21.312-17.374H53h-1v149c0,0,4.213,0,7.439,0h89.78c3.762,0,6.78-3.682,6.78-6.025V211.57
		c0-1.955,0.641-3.126,1.717-3.126c1.074,0,2.203,0.781,2.738,2.735l20.456,78.221c0.537,1.955,2.177,3.6,4.326,3.6h98.92
		C287.384,293,288.458,290.967,287.384,288.619z"/>
	<path fill="#FFFFFF" d="M216.956,143.433l-120.749-0.086c-0.438,2.362-1.271,4.6-2.408,6.653h126.342L216.956,143.433z M113,147
		h-12v-1h12V147z M130,147h-12v-1h12V147z M147,147h-12v-1h12V147z M163,147h-12v-1h12V147z M180,147h-12v-1h12V147z M197,147h-12
		v-1h12V147z M214,147h-12v-1h12V147z"/>
	<path fill="#FFFFFF" d="M52,2.934v130.652l1.468,0.001c2.491-9.228,11.164-16.021,21.179-16.021
		c10.038,0,18.601,6.822,21.072,16.081l121.713,0.173L285.736,4.498c0.541-0.782,0.557-1.078,0.557-1.858
		c0-1.953-1.6-2.64-3.749-2.64h-94.62c-2.687,0-4.836,1.077-5.913,3.031L161.046,71.16c-1.073,1.954-2.255,2.613-3.329,2.613
		c-1.076,0-1.717-1.293-1.717-2.856V2.934C156,0.59,153.52,0,149.22,0H52C54,0,52,0.59,52,2.934z"/>
	<path fill="#4D4D4D" d="M52,0c0,0,0,0.981,0,2.934C52,0.59,54,0,52,0z"/>
	<circle fill="#39B54A" cx="75" cy="139.25" r="7.75"/>
</g>
</svg>
